<?xml version="1.0" encoding="utf-8"?>
<!-- Generator: Adobe Illustrator 28.1.0, SVG Export Plug-In . SVG Version: 6.00 Build 0)  -->
<svg version="1.1" id="Layer_1" xmlns="http://www.w3.org/2000/svg" xmlns:xlink="http://www.w3.org/1999/xlink" x="0px" y="0px"
	 viewBox="0 0 800 800" style="enable-background:new 0 0 800 800;" xml:space="preserve">
<style type="text/css">
	.st0{fill:#FDC13C;}
</style>
<path class="st0" d="M666.67,33.33C666.67,14.92,681.59,0,700,0c18.41,0,33.33,14.92,33.33,33.33v33.33h33.33
	C785.08,66.67,800,81.59,800,100s-14.92,33.33-33.33,33.33h-33.33v33.33c0,18.41-14.92,33.33-33.33,33.33
	c-18.41,0-33.33-14.92-33.33-33.33v-33.33h-33.33c-18.41,0-33.33-14.92-33.33-33.33s14.92-33.33,33.33-33.33h33.33V33.33z"/>
<path class="st0" d="M706.45,269.15c16.93-7.23,36.78,0.56,42.44,18.08c22.6,69.93,23.74,145.32,2.85,216.32
	c-24.05,81.69-75.78,152.47-146.32,200.18c-70.54,47.71-155.48,69.38-240.26,61.28c-84.77-8.09-164.09-45.44-224.33-105.63
	C80.59,599.19,43.18,519.91,35.02,435.14c-8.16-84.77,13.44-169.73,61.09-240.31S214.49,72.46,296.16,48.34
	c70.98-20.96,146.37-19.88,216.32,2.67c17.52,5.65,25.32,25.49,18.11,42.42c-7.22,16.94-26.81,24.73-44.44,19.44
	c-55.54-16.67-114.98-16.93-171.05-0.38c-66.77,19.72-124.6,62.06-163.56,119.76s-56.62,127.17-49.94,196.47
	c6.67,69.3,37.26,134.12,86.51,183.33c49.25,49.21,114.09,79.74,183.4,86.36c69.31,6.61,138.76-11.1,196.43-50.11
	c57.67-39,99.97-96.87,119.63-163.65c16.51-56.08,16.2-115.52-0.52-171.05C681.75,295.98,689.52,276.38,706.45,269.15z"/>
<path class="st0" d="M257.02,304.82l-13.87,6.94c-19.82,9.91-43.15-4.5-43.15-26.67c0-11.29,6.38-21.62,16.48-26.67l43.15-21.57
	c4.63-2.31,9.73-3.52,14.91-3.52H300c18.41,0,33.33,14.92,33.33,33.33v266.67c0,18.41-14.92,33.33-33.33,33.33
	c-18.41,0-33.33-14.92-33.33-33.33V310.79C266.67,305.83,261.45,302.61,257.02,304.82z"/>
<path class="st0" d="M566.67,300h-93.33c-3.68,0-6.67,2.98-6.67,6.67V360c0,3.68,2.98,6.67,6.67,6.67h60
	c36.82,0,66.67,29.85,66.67,66.67V500c0,36.82-29.85,66.67-66.67,66.67h-66.67c-36.82,0-66.67-29.85-66.67-66.67
	c0-18.41,14.92-33.33,33.33-33.33H450c9.2,0,16.67,7.46,16.67,16.67S474.13,500,483.33,500H500c18.41,0,33.33-14.92,33.33-33.33
	c0-18.41-14.92-33.33-33.33-33.33h-33.33c-36.82,0-66.67-29.85-66.67-66.67V300c0-36.82,29.85-66.67,66.67-66.67h100
	c18.41,0,33.33,14.92,33.33,33.33S585.08,300,566.67,300z"/>
</svg>
