<?xml version="1.0" encoding="utf-8"?>
<!-- Generator: Adobe Illustrator 28.1.0, SVG Export Plug-In . SVG Version: 6.00 Build 0)  -->
<svg version="1.1" id="Layer_1" xmlns="http://www.w3.org/2000/svg" xmlns:xlink="http://www.w3.org/1999/xlink" x="0px" y="0px"
	 viewBox="0 0 496.1 800" style="enable-background:new 0 0 496.1 800;" xml:space="preserve">
<style type="text/css">
	.st0{fill:#FFB446;}
	.st1{fill:#FFDC64;}
	.st2{fill:#FFFFFF;}
</style>
<path class="st0" d="M-0.2,551.7C-0.2,688.8,110.9,800,248,800l0,0c137.1,0,248.3-111.2,248.3-248.3c0-137.9-69-248.3-22.7-344.8
	c0,0-73.9,13.8-115.2,124.1c0,0-137.9-137.9-80.3-331c0,0-140.4,55.2-125.7,234.5c12.6,153.8-14.7,179.3-14.7,179.3
	c0-124.1-97.1-179.3-97.1-179.3C68.7,386.2-0.2,427.6-0.2,551.7z"/>
<path class="st1" d="M427.2,610.5c0,103.3-79.7,191.4-183,189.4c-97.2-1.9-169.5-75.8-161.7-172.4c3.4-43.1,36.2-112.9,89.7-183.6
	l35.6,21.6c-1.2-87.4,40.2-203.4,40.2-203.4C275.2,384.4,427.2,416.1,427.2,610.5z"/>
<path class="st2" d="M179.1,524.1c-13.8,82.8-41.4,112.9-41.4,165.5c0,55.2,49.4,110.3,110.3,110.3l0,0
	c61.4,0,110.5-50.2,110.3-111.5c-0.5-164.9-96.5-247.1-96.5-247.1c13.8,82.8-27.6,124.1-27.6,124.1
	C217,539.7,179.1,524.1,179.1,524.1z"/>
</svg>
