<?xml version="1.0" encoding="utf-8"?>
<!-- Generator: Adobe Illustrator 28.1.0, SVG Export Plug-In . SVG Version: 6.00 Build 0)  -->
<svg version="1.1" id="Capa_1" xmlns="http://www.w3.org/2000/svg" xmlns:xlink="http://www.w3.org/1999/xlink" x="0px" y="0px"
	 viewBox="0 0 800 773.9" style="enable-background:new 0 0 800 773.9;" xml:space="preserve">
<style type="text/css">
	.st0{fill:#FFFFFF;stroke:#0C0C0C;stroke-miterlimit:10;}
	.st1{fill:#FFFFFF;stroke:#FFFFFF;stroke-miterlimit:10;}
</style>
<g>
	<path class="st0" d="M760.4,285.2c-20.2-17.2-45.5-26.6-71.1-26.6h-26h-93.5h-53.2V133.9c0-52.4-15.3-90.2-45.5-112.4
		C423.2-13.6,357.3,6.4,354.5,7.4c-8.2,2.6-13.8,10.2-13.8,18.7v139.5c0,45.5-21.7,84.1-64.6,114.8c-32,23-64.7,33-68.2,34.2
		l-4.8,1.1c-7.1-12-20-20-35-20H40.6C18.2,295.7,0,314,0,336.3v375.3c0,22.3,18.2,40.6,40.6,40.6h128c12.5,0,23.8-5.8,31.2-14.6
		c20.5,21.8,49.6,35.5,81.2,35.5h108.3h11.2h222c75.4,0,123.5-39.4,132.1-108.4l44.2-274.2C804.7,350.9,790.1,310.5,760.4,285.2z
		 M169.5,711.6c0,0.7-0.5,1.2-1.1,1.2H40.6c-0.7,0-1.2-0.5-1.2-1.2V336.3c0-0.7,0.5-1.1,1.2-1.1h128c0.7,0,1.1,0.5,1.1,1.1v375.3
		H169.5z M759.4,384.1l-44,274.7c0,0.2,0,0.5-0.2,0.8c-6.1,49.1-37.3,74.1-93,74.1h-222h-11.2H280.8c-35,0-65.4-26.1-70.8-60.6
		c-0.2-1.2-0.5-2.3-0.8-3.5V354.9l8.5-2c0.3,0,0.5-0.2,0.8-0.2c1.6-0.5,40.6-11.5,79.9-39.4c53.7-38.1,82-89.2,82-147.7V41.9
		c17.1-2.8,46.3-4.3,67.5,11.5c19.4,14.3,29.2,41.4,29.2,80.5v144.2c0,10.8,8.9,19.7,19.7,19.7h72.9h93.5h26
		c16.3,0,32.5,6.1,45.5,17.2C754.1,331.7,763.6,358.2,759.4,384.1z"/>
</g>
<rect x="35.8" y="325.2" class="st1" width="137.6" height="387.5"/>
<path class="st1" d="M632.5,748.2h-354c-45.6,0-82.5-36.9-82.5-82.5v-285c0-45.6,79.4-95.5,125-95.5h392c1.7,0,60,48.3,60,50
	l-58,330.5C715,711.3,678.1,748.2,632.5,748.2z"/>
<polygon class="st1" points="325.8,290.6 497.7,350.2 490,53.2 375.2,31.2 "/>
</svg>
