<?xml version="1.0" encoding="utf-8"?>
<!-- Generator: Adobe Illustrator 28.1.0, SVG Export Plug-In . SVG Version: 6.00 Build 0)  -->
<svg version="1.1" id="Capa_1" xmlns="http://www.w3.org/2000/svg" xmlns:xlink="http://www.w3.org/1999/xlink" x="0px" y="0px"
	 viewBox="0 0 800 800" style="enable-background:new 0 0 800 800;" xml:space="preserve">
<style type="text/css">
	.st0{fill:#FFFFFF;stroke:#000000;stroke-miterlimit:10;}
</style>
<g>
	<g>
		<path class="st0" d="M467.2,0.1c-183.5,0-332.8,149.2-332.8,332.8c0,84.7,31.8,161.8,83.9,220.6L5.9,765.7
			c-7.9,7.9-7.9,20.5,0,28.3c3.9,3.9,9,5.9,14.3,5.9s10.3-2,14.3-5.9l212.1-212.1c58.8,52.1,136.1,83.9,220.6,83.9
			C650.7,665.8,800,516.6,800,333S650.6,0.1,467.2,0.1z M467.2,40.2c161.3,0,292.7,131.4,292.7,292.7S628.5,625.6,467.2,625.6
			S174.4,494.3,174.4,332.9C174.4,171.4,305.8,40.2,467.2,40.2z"/>
	</g>
</g>
</svg>
