<?xml version="1.0" encoding="utf-8"?>
<!-- Generator: Adobe Illustrator 28.1.0, SVG Export Plug-In . SVG Version: 6.00 Build 0)  -->
<svg version="1.1" id="Layer_1" xmlns="http://www.w3.org/2000/svg" xmlns:xlink="http://www.w3.org/1999/xlink" x="0px" y="0px"
	 viewBox="0 0 530.1 583.9" style="enable-background:new 0 0 530.1 583.9;" xml:space="preserve">
<style type="text/css">
	.st0{fill:#F5853F;}
	.st1{fill:#F47633;}
	.st2{fill:#F99F3F;}
	.st3{fill:#F78E34;}
	.st4{fill:#FEC23B;}
	.st5{fill:#FBAD30;}
</style>
<g id="Layer_2_00000168109452745690732130000011205218497326995879_">
	<g id="brand">
		<g id="logo--color-white">
			<path class="st0" d="M478,282.6l1.8,1.7c17.1,20.9,29.8,45.1,37,71.1c6.8,24.4,7.4,50.1,1.7,74.8c-0.7,3.6-2.4,7-4.9,9.8
				c-2.6,3.1-5.5,6.1-8.4,9c-7.3,6.5-15,12.5-23.1,18c-22.6,15.8-46,30.4-69.7,44.4c-30.5,18-61.4,35.3-93.2,50.9
				c-11.4,5.6-22.9,11-34.8,15.6c-4.9,1.9-9.9,3.4-15,4.7c-3.8,0.9-7.9,0.9-11.7,0c-8.4-2.1-16.6-5-24.5-8.5
				c-17.4-7.5-34.3-15.9-50.9-24.8c-40.6-21.5-80.3-45-118.7-69.8l-12.1-8.1l-3.5-2.8c0.8-0.1,1.6-0.1,2.3,0
				c2.6,1.2,5.2,2.5,7.8,3.7c14.1,6,29,10.3,44.2,12.7c11.3,1.8,22.7,2.6,34.1,2.3c20.5-0.4,40.7-5,59.4-13.6
				c17.4-8.1,34.9-16.5,52-25.4c34.5-18,68.6-37,102.1-56.9c29.2-17.4,58.2-35.1,86.2-54c7.5-5.1,14.8-10.5,21.9-16
				c4.2-3.2,8.1-6.6,11.9-10.3c5-4.8,8.2-11.1,9-18c0.2-1.8,0.2-3.7,0-5.5C478.8,286,478.4,284.7,478,282.6z"/>
			<path class="st1" d="M479.8,284.3l-1.8-1.7c0,2.2,0.8,3.4,0.9,4.7c0.2,1.8,0.2,3.7,0,5.5c-0.8,6.9-4,13.2-9,18
				c-3.7,3.7-7.7,7.2-11.9,10.3c-7.2,5.5-14.5,10.9-21.9,16c-20.6,14.1-41.6,27.4-63,40.4c104.1-18.8,135.4,25.3,144.8,53.3V430
				c5.7-24.7,5.1-50.4-1.7-74.8C509.1,329.3,496.7,305.2,479.8,284.3z"/>
			<path class="st2" d="M526.4,389.1c-1.3-0.8-1.2-2-1.2-3c-0.3-6.7-1.1-13.3-2.5-19.9c-5.3-29.1-17.7-56.5-36-79.8
				c-8.3-10.3-18.1-19.4-29-27c-13.6-9-27-18.8-41-27.8c-33.7-21.9-68.4-42.5-103.4-62.3c-28.4-16.1-57.1-31.7-86.4-46.1
				c-11.3-5.6-22.7-11-34.4-15.5c-4.3-1.7-8.6-3.2-13-4.4c-5.6-1.6-11.5-1.6-17.1,0c-3.2,0.9-6.1,2.6-8.5,4.8l-2.4,2
				c-0.1-0.7-0.1-1.3,0-2c11.9-32.3,32.5-60.8,59.5-82.1c14.1-10.7,30-18.9,46.9-24.2c5-1.5,10.2-1.5,15.2-0.2
				c6.5,1.6,12.9,3.7,19,6.4c15.6,6.4,30.6,13.8,45.5,21.5c45.8,23.8,90.4,50,133.4,78.5c10.4,6.9,20.6,14,30.4,21.8
				c4.4,3.5,8.6,7.3,12.5,11.3c2.9,3,5.1,6.7,6.2,10.8c2.4,8.8,4.1,17.9,4.9,27c3.3,33.7,4.9,67.6,4.9,101.4c0,24,0,48-1.1,72
				c-0.5,11.8-1.4,23.6-2.2,35.3C526.6,387.5,526.4,388.3,526.4,389.1z"/>
			<path class="st3" d="M161.8,103.5c5.6-1.6,11.5-1.6,17.1,0c4.4,1.2,8.8,2.7,13,4.4c11.8,4.5,23.1,10,34.5,15.5
				c21,10.3,41.7,21.3,62.2,32.6C206.6,66,250.3,12.1,260.8,1.4l-3.1,0.7c-16.9,5.3-32.8,13.4-46.9,24.2
				c-27.1,21.3-47.7,49.8-59.5,82.1c-0.1,0.7-0.1,1.3,0,2l2.4-2C156,106.3,158.8,104.6,161.8,103.5z"/>
			<path class="st4" d="M219,15.9c-0.4,1.6-1.7,2.1-2.6,2.7c-24.4,16.8-44.4,39.3-58.4,65.5c-7.9,14.6-13.3,30.3-15.9,46.7
				c-0.7,4.4-1.2,9-1.5,13.3c-2.1,24.2-3.6,48.4-4.4,72.7c-1.3,39.4-1.7,78.7-0.7,118.1c0,13.2,0.5,26.5,1.1,39.8
				c0.6,17.2,1.6,34.4,3.1,51.4c0.7,9.3,2,18.5,3.8,27.7c0.7,4.3,2,8.4,4,12.3c1.5,2.8,3.3,5.4,5.5,7.6c2.5,2.6,5.6,4.6,9,5.9
				l3.7,1.4c-4.4,0.6-7.8,1.4-11.3,1.6c-7,0.5-14.1,1.2-21.2,1.4c-18.8,0.4-37.5-2.1-55.5-7.5c-20.8-6.2-40.1-16.9-56.4-31.2
				l-0.9-0.8c-5.4-4.1-9.1-10-10.6-16.5c-1.5-5.3-2.5-10.7-3.2-16.2c-2.2-16-3.3-32.1-4.1-48.2C0.1,325.3,0.1,287.1,1,248.9
				c0.4-16.8,1.2-33.6,2.4-50.4c0.7-11.4,1.9-22.7,3.8-34c0.9-5,2.1-10,3.4-14.9c1.1-3.8,3.2-7.2,6-10c4.8-4.9,9.9-9.4,15.4-13.5
				c13.7-10.4,27.9-20.1,42.4-29.3C117,69.4,161,44.3,206.3,21.5l11.3-5.5L219,15.9z"/>
			<path class="st5" d="M152.4,473.6c-2.2-2.3-4-4.9-5.5-7.6c-1.9-3.9-3.3-8-4-12.3c-1.8-9.1-3.1-18.4-3.8-27.7
				c-1.6-17.1-2.5-34.3-3.1-51.4c-0.4-12-0.7-24.1-1-36c-10.3,31.8-45,118.3-117.8,103.8c0.8,0.8,1.8,1.6,2.7,2.2l0.9,0.8
				c16.3,14.3,35.6,24.9,56.4,31.1c18,5.4,36.7,7.9,55.5,7.5c7.1,0,14.1-0.7,21.2-1.4c3.5,0,7-1,11.3-1.6l-3.7-1.4
				C158.1,478.4,154.9,476.3,152.4,473.6z"/>
		</g>
	</g>
</g>
</svg>
