<?xml version="1.0" encoding="utf-8"?>
<!-- Generator: Adobe Illustrator 28.1.0, SVG Export Plug-In . SVG Version: 6.00 Build 0)  -->
<svg version="1.1" id="Layer_1" xmlns="http://www.w3.org/2000/svg" xmlns:xlink="http://www.w3.org/1999/xlink" x="0px" y="0px"
	 viewBox="0 0 800 800" style="enable-background:new 0 0 800 800;" xml:space="preserve">
<style type="text/css">
	.st0{fill:#FFFFFF;stroke:#000000;stroke-miterlimit:10;}
</style>
<path class="st0" d="M502.9,417.7c-8.6-10.8-24.4-12.5-35.1-3.9L425,448V333.3c0-13.8-11.2-25-25-25c-13.8,0-25,11.2-25,25V448
	l-42.7-34.2c-10.8-8.6-26.5-6.9-35.1,3.9c-8.6,10.8-6.9,26.5,3.9,35.1l83.2,66.6c4.3,3.5,9.8,5.6,15.7,5.6c6,0,11.5-2.1,15.8-5.6
	l83.1-66.5C509.7,444.2,511.5,428.5,502.9,417.7z"/>
<path class="st0" d="M282,242.8c31.4-48.6,86.1-80.7,148.3-80.7c93.8,0,170.5,73.1,176.2,165.5c1.9-0.1,3.8-0.1,5.6-0.1
	c80.8,0,146.2,65.5,146.2,146.2s-65.5,146.2-146.2,146.2H233.3c-105.9,0-191.7-85.8-191.7-191.7c0-105.9,85.8-191.7,191.7-191.7
	C250.1,236.6,266.4,238.7,282,242.8z M430.3,212.1c-50.2,0-93.6,29.2-114,71.6c-5.7,11.8-19.4,17.2-31.6,12.4
	c-15.9-6.2-33.2-9.6-51.4-9.6c-78.2,0-141.7,63.4-141.7,141.7c0,78.2,63.4,141.7,141.7,141.7h378.8c53.1,0,96.2-43.1,96.2-96.2
	s-43.1-96.2-96.2-96.2c-8.6,0-17,1.1-24.9,3.2c-8,2.1-16.6,0.2-22.8-5.3c-6.3-5.4-9.4-13.6-8.5-21.8c0.6-4.9,0.9-9.9,0.9-15
	C556.8,268.7,500.2,212.1,430.3,212.1z"/>
</svg>
