<?xml version="1.0" encoding="utf-8"?>
<!-- Generator: Adobe Illustrator 28.1.0, SVG Export Plug-In . SVG Version: 6.00 Build 0)  -->
<svg version="1.1" id="Capa_1" xmlns="http://www.w3.org/2000/svg" xmlns:xlink="http://www.w3.org/1999/xlink" x="0px" y="0px"
	 viewBox="0 0 800 800" style="enable-background:new 0 0 800 800;" xml:space="preserve">
<style type="text/css">
	.st0{fill:#FFFFFF;stroke:#000000;stroke-miterlimit:10;}
</style>
<g>
	<path class="st0" d="M113.6,322.5c1,25.5,12.3,45.4,21.7,57.6c-10.9,27.1-15.3,69.6,21.2,102.9c26.4,24.2,71.7,35.1,134.3,32.1
		c44-2,80.8-10.2,82.3-10.5h0.2c8.5-1.6,17.4-3.4,26.4-5.4c0.7,10.7-1.2,37.3-20.9,97.2c-23.5,71.3-22,125.8,4.3,162.3
		c27.8,38.3,72.3,41.3,85.2,41.3c12.7,0,24.1-5.2,32.3-14.7c18.4-21.6,16.3-61.4,14.1-79.8c22-59.3,83.9-204.5,136.4-244.8
		c1-0.6,1.9-1.5,2.7-2.3c15.4-16.2,32.8-49.2,32.8-49.2l-7.1-390l-39.3-4.7c-6-0.8-113.1-14.4-223-12.2C362.7-1.9,317.7-0.4,283.4,7
		c-51.2,10.9-86.1,32.6-104,64.7c-13.6,24.3-13.6,48.7-11.4,64.1c-33.3,30.1-39.2,63.2-38,86.8c0.8,13.4,3.8,25,7,33.5
		C120.7,277.2,113,299.4,113.6,322.5z M179.7,275.8c7.2-7.6,8.5-18.6,3-27.3c-3-5.3-25.7-48.7,23.8-85.8c8-6,11.2-16.2,7.7-25.6
		c-0.5-2-7-23.2,4.9-43.8c11.4-19.9,36.1-34,73.6-42c30.3-6.5,71.3-7.7,122-3.7c0.8,0,1.6,0,2.3,0c107.6-2.3,216.5,11.7,217.5,11.9
		h0.2l16.9,2c-1,4.7-1.5,9.7-1.5,14.7v271.6c0,7.1,1.2,14.2,3.2,20.7c-3,11.2-11.5,36.2-31.1,57.4
		c-75.1,59.6-148.5,260.7-151.7,269.2c-1.2,3.7-1.5,7.5-1,11.2c3,18.9,1.8,41.8-2.2,48.5c-9.1-0.2-32.8-2.7-47.2-22.6
		c-17.1-23.6-16.4-65.7,2-121.6c27.9-85.1,30.5-130,8.2-149.7c-11.1-9.8-25.8-10.3-36.5-6.5c-10,2.2-19.9,4.2-29.1,5.9
		c-0.9,0.2-1.5,0.3-2.2,0.5c-51.3,11.4-143.3,18.1-175.3-11c-11.8-10.7-16.1-23.5-13.6-39.1c2-12.5,7.9-21.7,7.9-21.9
		c6.1-9.4,4.6-21.6-4-28.9c-1.1-1-18-17.4-18.7-39.3C158.3,305.9,165.3,290.9,179.7,275.8z"/>
</g>
</svg>
