<?xml version="1.0" encoding="utf-8"?>
<!-- Generator: Adobe Illustrator 28.1.0, SVG Export Plug-In . SVG Version: 6.00 Build 0)  -->
<svg version="1.1" id="Layer_1" xmlns="http://www.w3.org/2000/svg" xmlns:xlink="http://www.w3.org/1999/xlink" x="0px" y="0px"
	 viewBox="0 0 799.4 799.4" style="enable-background:new 0 0 799.4 799.4;" xml:space="preserve">
<style type="text/css">
	.st0{fill:#FFB446;}
	.st1{fill:#FFDC64;}
	.st2{fill:#FFFFFF;}
</style>
<path class="st0" d="M151.4,551.4c0,137.1,111.1,248.3,248.2,248.3l0,0c137.1,0,248.3-111.2,248.3-248.3
	c0-137.9-69-248.3-22.7-344.8c0,0-73.9,13.8-115.2,124.1c0,0-137.9-137.9-80.3-331c0,0-140.4,55.2-125.7,234.5
	c12.6,153.8-14.7,179.3-14.7,179.3c0-124.1-97.1-179.3-97.1-179.3C220.3,385.9,151.4,427.3,151.4,551.4z"/>
<path class="st1" d="M578.8,610.2c0,103.3-79.7,191.4-183,189.4c-97.2-1.9-169.5-75.8-161.7-172.4c3.4-43.1,36.2-112.9,89.7-183.6
	l35.6,21.6c-1.2-87.4,40.2-203.4,40.2-203.4C426.8,384.1,578.8,415.8,578.8,610.2z"/>
<path class="st2" d="M330.7,523.8c-13.8,82.8-41.4,112.9-41.4,165.5c0,55.2,49.4,110.3,110.3,110.3l0,0
	c61.4,0,110.5-50.2,110.3-111.5C509.4,523.2,413.4,441,413.4,441c13.8,82.8-27.6,124.1-27.6,124.1
	C368.6,539.4,330.7,523.8,330.7,523.8z"/>
</svg>
