<?xml version="1.0" encoding="utf-8"?>
<!-- Generator: Adobe Illustrator 28.1.0, SVG Export Plug-In . SVG Version: 6.00 Build 0)  -->
<svg version="1.1" id="Capa_1" xmlns="http://www.w3.org/2000/svg" xmlns:xlink="http://www.w3.org/1999/xlink" x="0px" y="0px"
	 viewBox="0 0 799.4 799.4" style="enable-background:new 0 0 799.4 799.4;" xml:space="preserve">
<style type="text/css">
	.st0{fill:#FFFFFF;stroke:#0C0C0C;stroke-miterlimit:10;}
	.st1{fill:#FFFFFF;stroke:#FFFFFF;stroke-miterlimit:10;}
</style>
<g>
	<path class="st0" d="M671,323.1c-15.2-13-34.3-20-53.5-20h-19.6h-70.4h-40.1v-93.9c0-39.5-11.5-67.9-34.3-84.6
		c-36.1-26.4-85.7-11.4-87.8-10.6c-6.2,2-10.4,7.7-10.4,14.1v105c0,34.3-16.3,63.3-48.6,86.4c-24.1,17.3-48.7,24.8-51.4,25.8
		l-3.6,0.8C246,337,236.3,331,225,331h-96c-16.9,0-30.6,13.8-30.6,30.6v282.6c0,16.8,13.7,30.6,30.6,30.6h96.4
		c9.4,0,17.9-4.4,23.5-11c15.4,16.4,37.4,26.7,61.1,26.7h81.6h8.4h167.2c56.8,0,93-29.7,99.5-81.6L700,402.3
		C704.4,372.5,693.4,342.1,671,323.1z M226.1,644.1c0,0.5-0.4,0.9-0.8,0.9H129c-0.5,0-0.9-0.4-0.9-0.9V361.5c0-0.5,0.4-0.8,0.9-0.8
		h96.4c0.5,0,0.8,0.4,0.8,0.8v282.6H226.1z M670.3,397.5l-33.1,206.9c0,0.2,0,0.4-0.2,0.6c-4.6,37-28.1,55.8-70,55.8H399.8h-8.4
		h-81.5c-26.4,0-49.2-19.7-53.3-45.6c-0.2-0.9-0.4-1.7-0.6-2.6v-237l6.4-1.5c0.2,0,0.4-0.2,0.6-0.2c1.2-0.4,30.6-8.7,60.2-29.7
		c40.4-28.7,61.7-67.2,61.7-111.2v-93.1c12.9-2.1,34.9-3.2,50.8,8.7c14.6,10.8,22,31.2,22,60.6v108.6c0,8.1,6.7,14.8,14.8,14.8h54.9
		h70.4h19.6c12.3,0,24.5,4.6,34.3,13C666.3,358.1,673.5,378,670.3,397.5z"/>
</g>
<rect x="365.8" y="129.9" class="st1" width="93" height="291.8"/>
<path class="st1" d="M576.3,671.4H303.2c-35.2,0-63.6-27.8-63.6-62.1V394.7c0-34.3,61.2-71.9,96.4-71.9h302.4
	c1.3,0,46.3,36.4,46.3,37.7l-44.7,248.9C639.9,643.7,611.5,671.4,576.3,671.4z"/>
<polygon class="st1" points="327.4,435.9 456.8,480.8 451,257.2 364.6,240.6 "/>
<rect x="127.1" y="349.8" class="st1" width="104.7" height="311"/>
</svg>
