<?xml version="1.0" encoding="utf-8"?>
<!-- Generator: Adobe Illustrator 28.1.0, SVG Export Plug-In . SVG Version: 6.00 Build 0)  -->
<svg version="1.1" id="Capa_1" xmlns="http://www.w3.org/2000/svg" xmlns:xlink="http://www.w3.org/1999/xlink" x="0px" y="0px"
	 viewBox="0 0 800 800" style="enable-background:new 0 0 800 800;" xml:space="preserve">
<style type="text/css">
	.st0{fill:#33BD71;}
	.st1{fill:#FFFFFF;stroke:#000000;stroke-miterlimit:10;}
</style>
<g>
	<path class="st0" d="M400,0C179.4,0,0,179.4,0,400s179.4,400,400,400s400-179.4,400-400S620.6,0,400,0z M393,417.7
		c-205.9,0-28.8,169.9-28.8-36s-156.9-40.3,49-40.3s-87.1-171-87.1,34.9S598.8,417.7,393,417.7z"/>
	<path class="st1" d="M607.5,389L314.2,189c-4.1-2.8-9.4-3.1-13.7-0.8c-4.4,2.3-7.1,6.8-7.1,11.8v400c0,4.9,2.7,9.5,7.1,11.8
		c1.9,1,4.1,1.5,6.2,1.5c2.6,0,5.3-0.8,7.5-2.3l293.3-200c3.6-2.5,5.8-6.6,5.8-11S611.1,391.5,607.5,389z"/>
</g>
</svg>
